<?xml version="1.0" encoding="UTF-8"?>
<svg xmlns="http://www.w3.org/2000/svg" viewBox="0 0 200 200">
  <defs>
    <linearGradient id="grad1" x1="0%" y1="0%" x2="100%" y2="100%">
      <stop offset="0%" style="stop-color:#09539a;stop-opacity:1" />
      <stop offset="100%" style="stop-color:#0c7cd5;stop-opacity:1" />
    </linearGradient>
    <filter id="shadow1" x="-20%" y="-20%" width="140%" height="140%">
      <feDropShadow dx="2" dy="3" stdDeviation="3" flood-color="#000" flood-opacity="0.3"/>
    </filter>
  </defs>
  
  <!-- Background Circle -->
  <circle cx="100" cy="100" r="90" fill="#f5f9ff" stroke="#d1e6ff" stroke-width="2"/>
  
  <!-- Shield -->
  <g transform="translate(50, 40)" filter="url(#shadow1)">
    <!-- Shield Base -->
    <path d="M50,0 L100,20 L100,60 C100,100 50,120 50,120 C50,120 0,100 0,60 L0,20 Z" fill="#ffffff" stroke="url(#grad1)" stroke-width="3" />
    
    <!-- Inner Shield -->
    <path d="M50,10 L90,25 L90,60 C90,90 50,110 50,110 C50,110 10,90 10,60 L10,25 Z" fill="url(#grad1)" fill-opacity="0.1" />
    
    <!-- Government Emblem Simplified -->
    <g transform="translate(25, 30) scale(0.5)">
      <!-- Ashoka Chakra -->
      <circle cx="50" cy="50" r="25" fill="none" stroke="#09539a" stroke-width="3"/>
      
      <!-- Chakra spokes -->
      <g stroke="#09539a" stroke-width="2">
        <line x1="50" y1="25" x2="50" y2="75"/>
        <line x1="25" y1="50" x2="75" y2="50"/>
        <line x1="32" y1="32" x2="68" y2="68"/>
        <line x1="32" y1="68" x2="68" y2="32"/>
      </g>
      
      <!-- Lions (simplified) -->
      <path d="M20,100 Q30,70 40,90 Q50,70 60,90 Q70,70 80,100" fill="none" stroke="#09539a" stroke-width="3" />
    </g>
  </g>
  
  <!-- Document/Certificate -->
  <g transform="translate(75, 100)" filter="url(#shadow1)">
    <rect x="-25" y="0" width="50" height="60" fill="#ffffff" stroke="#09539a" stroke-width="2" rx="2" />
    
    <!-- Certificate Decoration -->
    <rect x="-20" y="10" width="40" height="5" fill="#d76b00" rx="1" />
    <rect x="-20" y="20" width="40" height="2" fill="#09539a" rx="1" />
    <rect x="-20" y="27" width="40" height="2" fill="#09539a" rx="1" />
    <rect x="-20" y="34" width="40" height="2" fill="#09539a" rx="1" />
    
    <!-- Certificate Seal -->
    <circle cx="0" cy="50" r="5" fill="#d76b00" />
  </g>
</svg>
