<?xml version="1.0" encoding="UTF-8"?>
<svg xmlns="http://www.w3.org/2000/svg" viewBox="0 0 200 200">
  <defs>
    <linearGradient id="grad1" x1="0%" y1="0%" x2="100%" y2="100%">
      <stop offset="0%" style="stop-color:#09539a;stop-opacity:1" />
      <stop offset="100%" style="stop-color:#0c7cd5;stop-opacity:1" />
    </linearGradient>
    <filter id="shadow1" x="-20%" y="-20%" width="140%" height="140%">
      <feDropShadow dx="2" dy="3" stdDeviation="3" flood-color="#000" flood-opacity="0.3"/>
    </filter>
  </defs>
  
  <!-- Background Circle -->
  <circle cx="100" cy="100" r="90" fill="#f5f9ff" stroke="#d1e6ff" stroke-width="2"/>
  
  <!-- Building -->
  <g transform="translate(40, 40)" filter="url(#shadow1)">
    <!-- Building Base -->
    <rect x="10" y="30" width="100" height="90" fill="#ffffff" stroke="url(#grad1)" stroke-width="3" rx="3" />
    
    <!-- Building Top -->
    <rect x="30" y="10" width="60" height="20" fill="url(#grad1)" rx="2" />
    
    <!-- Windows Row 1 -->
    <rect x="25" y="40" width="15" height="20" fill="#d1e6ff" rx="2" />
    <rect x="50" y="40" width="15" height="20" fill="#d1e6ff" rx="2" />
    <rect x="75" y="40" width="15" height="20" fill="#d1e6ff" rx="2" />
    
    <!-- Windows Row 2 -->
    <rect x="25" y="70" width="15" height="20" fill="#d1e6ff" rx="2" />
    <rect x="50" y="70" width="15" height="20" fill="#d1e6ff" rx="2" />
    <rect x="75" y="70" width="15" height="20" fill="#d1e6ff" rx="2" />
    
    <!-- Door -->
    <rect x="50" y="100" width="15" height="20" fill="url(#grad1)" rx="2" />
    <circle cx="55" cy="110" r="1.5" fill="#ffffff" />
  </g>
</svg>
