<?xml version="1.0" encoding="UTF-8"?>
<svg xmlns="http://www.w3.org/2000/svg" viewBox="0 0 200 200">
  <defs>
    <linearGradient id="grad1" x1="0%" y1="0%" x2="100%" y2="100%">
      <stop offset="0%" style="stop-color:#09539a;stop-opacity:1" />
      <stop offset="100%" style="stop-color:#0c7cd5;stop-opacity:1" />
    </linearGradient>
    <filter id="shadow1" x="-20%" y="-20%" width="140%" height="140%">
      <feDropShadow dx="2" dy="3" stdDeviation="3" flood-color="#000" flood-opacity="0.3"/>
    </filter>
  </defs>
  
  <!-- Background Circle -->
  <circle cx="100" cy="100" r="90" fill="#f5f9ff" stroke="#d1e6ff" stroke-width="2"/>
  
  <!-- Graduation Cap -->
  <g transform="translate(40, 50)" filter="url(#shadow1)">
    <!-- Cap Base -->
    <rect x="20" y="60" width="80" height="10" fill="url(#grad1)" rx="2" />
    
    <!-- Cap Top -->
    <polygon points="60,20 20,45 100,45 60,20" fill="url(#grad1)" />
    
    <!-- Tassel -->
    <path d="M60,20 L60,45 L65,65 L70,60 L65,40 Z" fill="#d76b00" />
    
    <!-- Cap Button -->
    <circle cx="60" cy="20" r="3" fill="#d76b00" />
  </g>
  
  <!-- Book -->
  <g transform="translate(55, 100)" filter="url(#shadow1)">
    <rect x="0" y="0" width="90" height="12" fill="#09539a" rx="2" />
    <rect x="0" y="12" width="90" height="30" fill="#ffffff" stroke="#09539a" stroke-width="2" rx="2" />
    <line x1="45" y1="12" x2="45" y2="42" stroke="#09539a" stroke-width="1" />
    
    <!-- Book Lines -->
    <line x1="10" y1="20" x2="35" y2="20" stroke="#09539a" stroke-width="1" />
    <line x1="10" y1="27" x2="35" y2="27" stroke="#09539a" stroke-width="1" />
    <line x1="10" y1="34" x2="35" y2="34" stroke="#09539a" stroke-width="1" />
    
    <line x1="55" y1="20" x2="80" y2="20" stroke="#09539a" stroke-width="1" />
    <line x1="55" y1="27" x2="80" y2="27" stroke="#09539a" stroke-width="1" />
    <line x1="55" y1="34" x2="80" y2="34" stroke="#09539a" stroke-width="1" />
  </g>
</svg>
